<svg fill="#FFFFFF" stroke-width="0px" xmlns="http://www.w3.org/2000/svg" version="1.1" viewBox="0 0 1200 1200">
  <path d="M871.84,202.56h-410.89c-16.6,0-30.06,13.46-30.06,30.06v337.21l-26.89-27.47c-5.6-5.72-13.24-8.97-21.25-9.03-8.06.08-15.7,3.07-21.39,8.7l-29.68,29.4V232.62c0-16.6-13.46-30.06-30.06-30.06h-113.47c-16.6,0-30.06,13.46-30.06,30.06v874.63c0,16.6,13.46,30.06,30.06,30.06h683.68c16.6,0,30.06-13.46,30.06-30.06V232.62c0-16.6-13.46-30.06-30.06-30.06ZM841.79,1077.2H218.22V262.68h53.35v380.83c0,12.13,7.29,23.07,18.49,27.74,11.2,4.67,24.11,2.15,32.73-6.39l59.41-58.85,57.28,58.52c8.55,8.73,21.53,11.42,32.84,6.8,11.31-4.61,18.7-15.61,18.7-27.83v-380.83h350.77v814.52Z"/>
  <path d="M946.86,140.17H254.66c-12.45,0-22.54,10.09-22.54,22.54s10.09,22.54,22.54,22.54h669.66v854.49c0,12.45,10.09,22.54,22.54,22.54s22.54-10.09,22.54-22.54V162.72c0-12.45-10.09-22.54-22.54-22.54Z"/>
  <path d="M1012.35,74.69H320.14c-12.45,0-22.54,10.09-22.54,22.54s10.09,22.54,22.54,22.54h669.66v854.49c0,12.45,10.09,22.54,22.54,22.54s22.54-10.09,22.54-22.54V97.23c0-12.45-10.09-22.54-22.54-22.54Z"/>
</svg>