<svg stroke-width="0px" xmlns="http://www.w3.org/2000/svg" viewBox="0 0 1200 1200">
  <path fill="#d60b18" class="cls-4" d="M192.08,723.84c2.44,3.35,8.16,6.1,12.71,6.1h857.22c4.54,0,8.27-3.26,8.27-7.23v-303.52c0-3.98-3.72-7.22-8.27-7.22H204.79c-4.56,0-10.27,2.73-12.71,6.1l-106.88,146.79c-2.45,3.35-2.45,8.83,0,12.2l106.88,146.79Z"/>
  <path fill="#FFFFFF" d="M245.05,526.27c9.54-7.46,17.35-3.66,17.35,8.46v88.15c0,12.12-7.81,15.93-17.35,8.45l-49.77-38.95c-9.54-7.46-9.54-19.68,0-27.16l49.77-38.95Z"/>
</svg>