<svg xmlns="http://www.w3.org/2000/svg" version="1.1" viewBox="0 0 1200 1200">
  <path fill="#FFFFFF" stroke-width="0px" class="cls-1" d="M819.79,423.19c0-136.7-113.16-247.47-250.72-243.57-128.49,3.64-234.97,111.9-236.6,240.43-1.07,84.51,41.13,159.4,105.78,203.94-59.62,20.57-114.26,54.55-160.17,100.45-71.02,71.02-113.57,162.93-121.93,261.86-1.64,19.38,13.5,36.17,32.95,36.17h0c16.89,0,31.22-12.79,32.61-29.62,15.1-182.28,168.29-326,354.4-326,134.35,0,243.67-109.31,243.67-243.67h0ZM576.12,601c-98.05,0-177.81-79.77-177.81-177.81s79.76-177.81,177.81-177.81,177.81,79.77,177.81,177.81-79.77,177.81-177.81,177.81h0ZM717.71,824.88h246.96c18.18,0,32.93,14.74,32.93,32.93h0c0,18.19-14.74,32.93-32.93,32.93h-246.96c-18.18,0-32.93-14.74-32.93-32.93h0c0-18.18,14.74-32.93,32.93-32.93ZM997.6,726.13h0c0,18.18-14.74,32.93-32.93,32.93h-246.96c-18.18,0-32.93-14.74-32.93-32.93h0c0-18.19,14.74-32.93,32.93-32.93h246.96c18.18,0,32.93,14.74,32.93,32.93ZM717.71,956.62h246.96c18.18,0,32.93,14.74,32.93,32.93h0c0,18.19-14.74,32.93-32.93,32.93h-246.96c-18.18,0-32.93-14.74-32.93-32.93h0c0-18.18,14.74-32.93,32.93-32.93ZM684.78,956.62"/>
</svg>