<svg xmlns="http://www.w3.org/2000/svg" version="1.1" viewBox="0 0 1200 1200">
  <path fill="#FFFFFF" d="M595.82,962.96c-185.47,0-342.97-153.89-342.97-343.2,0-52.79,12.22-101.09,32.15-145.51l68.79,68.89,16.07-141.65,16.07-141.01-141.12,16.1-141.1,16.1,60.44,60.52c-48.21,76.62-76.51,169.34-76.51,266.56,0,278.16,229.83,508.04,508.19,508.04,96.76,0,193.51-23.82,270.34-75.99l-121.2-121.69c-44.35,24.47-92.56,32.84-149.15,32.84h0ZM1047.76,857.37h0c36.33-72.12,60.76-153.25,60.76-237.6,0-282.66-230.15-508.67-512.71-508.67-84.54,0-169.4,23.83-237.86,60.54l125.05,124.9c32.14-16.08,72.64-19.95,112.81-19.95,193.51,0,346.84,153.24,346.84,343.18,0,39.93-7.7,76.63-19.93,112.69l-60.44-60.52-16.07,137.14-16.39,141.65,141.44-16.1,141.1-12.24-64.61-65.02Z"/>
</svg>