<svg data-name="Capa 1" xmlns="http://www.w3.org/2000/svg" viewBox="0 0 1200 1200">
  <path fill="#FFFFFF" fill-rule="evenodd" stroke-width="0px" class="cls-1" d="M291.99,91.53h267.41l-11.83,15.61-249.54,295.11-13.84-4.54V91.53h7.8ZM883.97,744.19l-141.26-141.25-18.38,11.07-27.94-26.94c43.56-61.18,38.27-146.3-16.36-201.19-61.19-60.93-160.15-60.93-221.08,0-61.18,61.18-61.18,160.14,0,221.09,54.63,54.89,139.99,59.92,201.19,16.36l26.18,25.18-10.58,21.15,141.26,141.52s30.72.24,49.35-20.91c18.62-21.15,17.62-46.08,17.62-46.08h0ZM654.58,581.53h0c-47.09,47.08-123.38,47.08-170.22,0-47.08-46.84-47.08-123.14,0-170.22,46.84-46.84,123.13-47.09,170.22,0,47.08,47.08,47.08,123.37,0,170.22h0ZM226.77,1089.91h310.98v-279.5h124.64v279.5h312.99v-419.25h124.88L600.94,111.43,101.89,670.66h124.88v419.25Z"/>
</svg>