<svg xmlns="http://www.w3.org/2000/svg" version="1.1" viewBox="0 0 1200 1200">
  <path stroke-width="50" stroke="#FFFFFF" fill="none" d="M1094.31,1005.6c0,36.63-29.7,66.32-66.31,66.32H172.01c-36.62,0-66.32-29.69-66.32-66.32V194.39c0-36.62,29.7-66.31,66.32-66.31h855.99c36.61,0,66.31,29.69,66.31,66.31v811.21Z"/>
  <g fill="#FFFFFF">
    <text transform="translate(204.66 987.3)"><tspan x="0" y="0">P</tspan></text>
    <path d="M387.66,705.3v282h-164V222.3h176.31c69.95,0,121.89,8.89,155.81,26.66,33.91,17.78,50.88,54.03,50.88,108.75v212.19c0,50.12-13.83,85.58-41.47,106.36-27.64,20.8-86.81,30.48-177.53,29.05ZM442.66,555.69v-183.78c0-27.06-18.34-40.61-55-40.61v265c36.66,0,55-13.53,55-40.61Z"/>
    <polygon points="986.96 222.05 672.11 222.05 672.11 987.29 840.2 987.29 840.2 620.15 971.48 620.15 971.48 527.3 840.2 527.3 840.2 320.24 986.96 320.24 986.96 222.05"/>
  </g>

</svg>