<?xml version="1.0" encoding="UTF-8" standalone="no"?>
<svg version="1.1" x="0px" y="0px" width="470.28302" height="232.82401"
    viewBox="48.139 278.445 470.28302 232.82401" enable-background="new 48.139 278.445 494 285"
    xml:space="preserve" id="svg11" xmlns="http://www.w3.org/2000/svg"
    xmlns:svg="http://www.w3.org/2000/svg"><defs
   id="defs11" />
    <g id="g9" transform="translate(-15.227,-4.8860002)">
	    <path
            d="m 533.644,373.08 c 0,49.576 -105.28,89.767 -235.136,89.767 -129.87,0 -235.142,-40.189 -235.142,-89.767 0,-49.567 105.275,-89.749 235.142,-89.749 129.854,0 235.136,40.182 235.141,89.749"
            id="path1" />
        <path fill="#ff0000"
            d="m 523.4,371.482 c 0,44.428 -100.284,80.438 -224.004,80.438 -123.688,0 -223.979,-36.015 -223.979,-80.438 0,-44.428 100.29,-80.447 223.979,-80.447 123.719,0 224.004,36.02 224.004,80.447"
            id="path2" />
        <path fill="#ffffff"
            d="m 301.901,394.341 h -9.702 v -27.125 l -5.655,27.125 h -7.479 l -6.509,-27.125 v 27.125 h -8.487 v -48.317 h 13.982 l 4.972,25.066 4.312,-25.066 h 14.563 v 48.317 z M 236.312,346.024 H 247.2 v 40.563 c 0,0.962 0.59,1.454 1.812,1.454 1.189,0 1.814,-0.491 1.814,-1.454 v -40.563 h 10.858 v 39.988 c 0,2.798 -1.19,4.946 -3.566,6.474 -2.366,1.528 -5.402,2.292 -9.106,2.292 -3.424,0 -6.399,-0.685 -8.915,-2.059 -2.524,-1.374 -3.784,-3.582 -3.784,-6.642 v -40.058 0.005 z m -2.149,48.317 h -10.869 v -48.317 h 10.869 z m -13.081,0 h -9.708 v -27.125 l -5.649,27.125 h -7.495 l -6.499,-27.125 v 27.125 h -8.487 v -48.317 h 13.989 l 4.96,25.066 4.315,-25.066 h 14.574 z m -39.676,0 H 160.15 v -48.317 h 21.137 v 6.226 h -10.278 v 13.052 h 9.263 v 5.849 h -9.263 v 17 h 10.394 v 6.196 z M 146.2,362.731 v -7.952 c 0,-1.682 -1.11,-2.525 -3.378,-2.525 v 13.051 c 2.268,0 3.378,-0.873 3.378,-2.57 m 12.467,31.665 h -10.874 c -1.176,-1.369 -1.766,-5.253 -1.766,-11.657 v -0.07 l 0.069,-2.892 c 0.06,-4.023 0.104,-6.082 0.104,-6.166 0,-1.637 -1.11,-2.465 -3.378,-2.465 v 23.191 h -10.889 v -48.317 h 13.438 c 3.065,0 5.729,0.675 7.997,2.054 2.268,1.375 3.402,3.537 3.402,6.503 v 5.799 c 0,3.745 -2.247,6.29 -6.736,7.62 4.515,1.032 6.771,3.686 6.771,7.977 l -0.193,5.283 c 0,7.739 0.688,12.119 2.049,13.151 m -39.402,-27.329 v -11.593 c 0,-1.707 -1.225,-2.565 -3.641,-2.565 v 16.728 c 2.412,0 3.641,-0.868 3.641,-2.57 m -3.641,9.46 v 17.799 h -10.586 v -48.317 h 11.419 c 4.534,0 7.894,0.561 10.105,1.682 2.191,1.126 3.289,3.413 3.289,6.875 v 13.414 c 0,3.155 -0.908,5.402 -2.704,6.716 -1.791,1.32 -5.642,1.935 -11.528,1.831"
            id="path3" />
        <path fill="#ffffff"
            d="m 374.347,342.954 h 23.062 c 0,0 1.087,0 1.111,0.129 0,0 0.278,-0.084 0.992,-0.129 0.685,-0.05 21.188,0 21.188,0 0,0 1.047,0 1.071,0.238 0,0 0.348,-0.233 1.23,-0.258 0.857,-0.025 14.618,0 14.618,0 0,0 8.057,0.342 11.588,5.715 0,0 3.07,-6.196 13.944,-6.196 10.85,0 14.832,5.313 14.832,10.729 v 9.579 c 0,0 -0.322,3.006 -3.199,3.006 h -3.433 c 0,0 7.56,6.265 7.56,11.831 v 9.133 c 0,0 -0.258,11.335 -14.961,11.335 0,0 -6.623,0.595 -11.351,-2.56 0,0 -0.456,2.203 -3.854,2.203 h -10.417 c 0,0 -1.904,-0.353 -2.276,-1.102 0,0 -1.17,1.057 -2.415,1.057 h -11.405 l -0.451,-0.203 c 0,0 -0.466,0.203 -0.777,0.203 H 399.43 c 0,0 -3.136,-0.248 -3.136,-3.611 v -38.366 h -1.588 V 394.4 c 0,0 0.367,3.239 -3.081,3.239 h -11.146 c 0,0 -3.249,-0.288 -3.249,-3.239 v -38.668 h -3.086 c 0,0 -2.966,-0.049 -2.966,-3.254 v -6.796 c 0,0 0.169,-2.733 3.185,-2.733"
            id="path4" />
        <path fill="#ffffff"
            d="m 316.715,342.934 h 20.17 c 0,0 0.901,0.025 1.007,0.154 0,0 0.332,-0.154 0.873,-0.154 h 10.71 c 0,0 1.131,0.055 1.181,0.352 0,0 0.456,-0.352 1.39,-0.352 h 10.879 c 0,0 3.046,0.154 3.046,3.165 v 38.991 h 6.229 c 0,0 3.284,0.397 3.284,3.155 v 6.608 c 0,0 -0.406,2.773 -3.284,2.773 h -20.34 c 0,0 -1.175,-0.129 -1.186,-0.278 0,0 -0.044,0.278 -1.234,0.278 h -11.048 c 0,0 -3.046,-0.278 -3.046,-3.537 v -19.634 h -4.471 v 20.165 c 0,0 -0.028,3.011 -3.313,3.011 h -10.725 c 0,0 -3.385,-0.03 -3.385,-3.368 v -48.257 c 0,0 -0.147,-3.066 3.261,-3.066"
            id="path5" />
        <path
            d="m 450.483,375.083 h 9.887 v 11.092 c 0,1.111 0.689,1.667 2.039,1.667 1.324,0 1.965,-0.555 1.965,-1.667 v -5.725 c 0,-1.746 -1.195,-3.81 -3.576,-6.171 -4.628,-4.375 -7.512,-7.322 -8.643,-8.83 -1.131,-1.488 -1.666,-3.145 -1.666,-4.941 v -5.437 c 0,-6.265 4.166,-9.391 12.535,-9.391 7.521,0 11.256,2.843 11.256,8.552 v 8.349 h -9.9 v -8.895 c 0,-0.962 -0.552,-1.449 -1.622,-1.449 -1.267,0 -1.915,0.933 -1.915,2.798 l 0.229,3.14 c 0,1.791 1.221,3.889 3.655,6.271 4.534,4.246 7.411,7.212 8.637,8.889 1.235,1.677 1.841,3.602 1.841,5.735 v 6.166 c 0,6.424 -4.188,9.624 -12.591,9.624 -8.104,0 -12.129,-2.912 -12.129,-8.755 v -11.028 z m -13.934,-12.247 v -7.947 c 0,-1.687 -1.121,-2.535 -3.384,-2.535 v 13.042 c 2.258,0 3.384,-0.864 3.384,-2.56 m 12.481,31.674 h -10.889 c -1.176,-1.374 -1.756,-5.258 -1.756,-11.667 v -0.075 l 0.055,-2.892 c 0.069,-4.018 0.104,-6.072 0.104,-6.166 0,-1.637 -1.121,-2.465 -3.384,-2.465 v 23.186 h -10.874 v -48.317 h 13.438 c 3.061,0 5.725,0.685 7.997,2.054 2.267,1.374 3.393,3.542 3.393,6.508 v 5.79 c 0,3.74 -2.247,6.295 -6.746,7.619 4.515,1.037 6.781,3.686 6.781,7.982 l -0.184,5.288 c 0,7.724 0.688,12.104 2.054,13.151 m -28.662,-0.071 H 399.12 v -48.317 h 21.112 v 6.236 h -10.264 v 13.042 h 9.262 v 5.854 h -9.262 v 16.99 h 10.388 v 6.201 z m -23.33,-42.017 h -6.092 v 42.017 h -10.863 v -42.017 h -6.077 v -6.3 h 23.032 z m -24.387,42.017 h -20.403 v -48.317 h 10.879 v 42.116 h 9.524 z m -22.714,0 h -10.873 v -48.317 h 10.873 z m -12.421,-42.081 h -9.511 v 13.042 h 8.492 v 5.854 h -8.492 v 23.186 H 317.12 v -48.317 h 20.385 z"
            id="path6" />
        <rect x="413.34799" y="355.86099" width="5.7690001" height="6.6469998" id="rect6" />
        <rect x="413.34799" y="374.841" width="5.7690001" height="10.511" id="rect7" />
        <path
            d="m 449.13,365.728 c 0,0 2.077,3.11 4.855,5.62 0,0 -3.036,-0.104 -3.8,0.134 0,0 -1.027,-2.868 -2.516,-3.994 l 1.464,-1.761 z"
            id="path7" />
        <rect x="330.82199" y="354.814" width="4.4650002" height="6.9749999" id="rect8" />
        <path stroke="#ffffff" stroke-width="1" fill="none"
            d="m 486.016,342.393 h 2.029 c 0.432,0 0.783,-0.045 1.021,-0.129 0.237,-0.084 0.426,-0.233 0.55,-0.426 0.119,-0.184 0.18,-0.387 0.18,-0.615 0,-0.333 -0.124,-0.6 -0.362,-0.809 -0.248,-0.218 -0.641,-0.313 -1.165,-0.313 h -2.253 v 2.297 z m -0.952,3.884 v -6.955 h 3.175 c 0.625,0 1.116,0.055 1.449,0.184 0.337,0.119 0.6,0.347 0.798,0.66 0.188,0.317 0.293,0.67 0.293,1.052 0,0.496 -0.164,0.913 -0.491,1.245 -0.321,0.342 -0.833,0.556 -1.508,0.645 0.229,0.114 0.422,0.233 0.557,0.352 0.286,0.248 0.534,0.561 0.794,0.922 l 1.245,1.895 h -1.196 l -0.938,-1.443 c -0.271,-0.417 -0.511,-0.744 -0.68,-0.967 -0.188,-0.213 -0.342,-0.372 -0.485,-0.461 -0.148,-0.089 -0.282,-0.154 -0.437,-0.184 -0.109,-0.03 -0.27,-0.035 -0.507,-0.035 h -1.11 v 3.085 h -0.953 z"
            id="path8" />
        <path fill="none" stroke="#ffffff"
            d="m 487.857,337.035 c -3.333,0 -6.037,2.649 -6.037,5.898 0,3.249 2.704,5.903 6.037,5.903 3.334,0 6.032,-2.649 6.032,-5.903 0,-3.254 -2.703,-5.898 -6.032,-5.898 z"
            id="path9" />
</g>
    <g fill="#ffffff" id="g11" transform="translate(-15.227,-4.8860002)">
        <path
            d="m 495.338,502.474 2.4,-1.076 c 0.224,0.793 0.654,1.424 1.26,1.84 0.61,0.422 1.399,0.635 2.327,0.635 0.907,0 1.622,-0.242 2.147,-0.734 0.531,-0.479 0.794,-1.125 0.794,-1.947 0,-1.059 -0.888,-2.023 -2.704,-2.85 -0.272,-0.129 -0.466,-0.209 -0.604,-0.271 -2.033,-0.957 -3.402,-1.846 -4.077,-2.641 -0.686,-0.777 -1.018,-1.746 -1.018,-2.887 0,-1.482 0.525,-2.684 1.532,-3.592 1.022,-0.918 2.382,-1.373 4.033,-1.373 1.374,0 2.521,0.258 3.442,0.773 0.912,0.51 1.572,1.26 1.919,2.227 l -2.365,1.186 c -0.361,-0.572 -0.773,-0.984 -1.229,-1.26 -0.432,-0.258 -0.948,-0.395 -1.519,-0.395 -0.805,0 -1.453,0.219 -1.931,0.625 -0.48,0.41 -0.714,0.957 -0.714,1.654 0,1.088 1.041,2.105 3.146,3.041 0.148,0.084 0.293,0.137 0.382,0.182 1.826,0.838 3.101,1.641 3.795,2.426 0.66,0.783 1.008,1.77 1.008,2.951 0,1.707 -0.541,3.08 -1.662,4.088 -1.115,1.006 -2.608,1.512 -4.499,1.512 -1.572,0 -2.873,-0.352 -3.875,-1.061 -1.016,-0.717 -1.666,-1.729 -1.988,-3.053 M 477.617,498 v 8.109 h -2.837 v -18.121 h 4.206 c 1.24,0 2.203,0.08 2.883,0.229 0.689,0.158 1.274,0.418 1.741,0.779 0.575,0.451 1.021,1.002 1.35,1.701 0.298,0.689 0.456,1.439 0.456,2.271 0,1.445 -0.361,2.59 -1.075,3.408 -0.705,0.824 -1.781,1.324 -3.182,1.488 l 6.386,8.238 h -3.424 l -6.155,-8.109 h -0.349 V 498 Z m 0.19,-2.284 h 0.55 c 1.593,0 2.659,-0.188 3.18,-0.545 0.518,-0.371 0.779,-1.012 0.779,-1.939 0,-0.982 -0.271,-1.697 -0.854,-2.094 -0.557,-0.412 -1.593,-0.625 -3.105,-0.625 h -0.55 v 5.209 z m -23.921,10.393 v -18.121 h 10.362 v 2.496 h -7.321 v 4.549 h 7.321 v 2.58 h -7.321 v 5.857 h 7.321 v 2.635 h -10.362 z m -14.271,-15.625 v 15.621 h -3.03 v -15.621 h -4.927 v -2.496 h 12.863 v 2.496 z m -23.867,15.625 v -18.121 h 3.021 v 15.488 h 6.741 v 2.633 z m -14.435,-18.121 h 3.021 v 18.123 h -3.021 z m -20.745,18.121 v -18.121 h 10.354 v 2.496 h -7.343 v 4.514 h 7.343 v 2.584 h -7.343 v 8.529 h -3.016 z m -34.155,0 v -8.293 l -6.251,-9.822 h 3.165 l 3.904,6.15 c 0.084,0.16 0.208,0.354 0.332,0.615 0.154,0.258 0.293,0.537 0.432,0.828 0.129,-0.277 0.243,-0.564 0.367,-0.818 0.134,-0.258 0.264,-0.49 0.433,-0.709 l 3.992,-6.066 h 3.002 l -6.39,9.822 v 8.293 h -2.996 z m -18.284,-15.625 v 15.621 h -3.031 v -15.621 h -4.926 v -2.496 h 12.867 v 2.496 z m -20.418,-2.496 h 3.011 v 18.123 h -3.011 z m -19.338,18.121 v -18.121 h 3.002 v 15.488 h 6.752 v 2.633 z m -12.009,0 -2.113,-4.668 h -7.347 l -2.152,4.668 h -3.18 l 8.993,-18.844 8.982,18.844 z m -8.339,-7.113 h 5.154 l -1.899,-4.141 c -0.104,-0.264 -0.224,-0.561 -0.343,-0.908 -0.129,-0.342 -0.233,-0.721 -0.354,-1.141 -0.099,0.396 -0.197,0.773 -0.321,1.105 -0.109,0.348 -0.229,0.654 -0.332,0.943 l -1.9,4.141 h -0.005 z m -29.948,-11.008 h 2.967 v 11.004 c 0,1.627 0.401,2.852 1.177,3.666 0.769,0.838 1.919,1.244 3.456,1.244 1.533,0 2.685,-0.406 3.474,-1.244 0.764,-0.814 1.161,-2.039 1.161,-3.666 v -11.004 h 3.016 v 11.275 c 0,2.441 -0.635,4.281 -1.898,5.498 -1.271,1.225 -3.187,1.824 -5.74,1.824 -2.55,0 -4.464,-0.594 -5.715,-1.814 -1.256,-1.227 -1.891,-3.041 -1.891,-5.506 v -11.277 z m -13.269,15.656 3.968,4.162 h -3.611 l -2.42,-2.57 c -0.849,0.443 -1.672,0.775 -2.535,0.988 -0.857,0.213 -1.74,0.313 -2.653,0.313 -1.279,0 -2.5,-0.238 -3.717,-0.734 -1.205,-0.467 -2.271,-1.145 -3.175,-2.021 -0.933,-0.895 -1.656,-1.906 -2.138,-3.063 -0.506,-1.141 -0.749,-2.355 -0.749,-3.662 0,-1.295 0.243,-2.514 0.749,-3.67 0.48,-1.145 1.205,-2.174 2.138,-3.061 0.923,-0.879 1.984,-1.568 3.21,-2.045 1.195,-0.471 2.477,-0.709 3.819,-0.709 1.359,0 2.625,0.238 3.825,0.715 1.2,0.471 2.271,1.16 3.198,2.053 0.942,0.883 1.668,1.92 2.158,3.057 0.486,1.15 0.76,2.365 0.76,3.656 0,1.266 -0.248,2.449 -0.72,3.576 -0.485,1.127 -1.195,2.123 -2.107,3.006 m -3.766,-4.018 1.791,1.875 c 0.585,-0.67 0.997,-1.359 1.245,-2.088 0.263,-0.73 0.393,-1.504 0.393,-2.348 0,-0.922 -0.174,-1.791 -0.501,-2.609 -0.338,-0.828 -0.823,-1.543 -1.464,-2.178 -0.654,-0.648 -1.374,-1.141 -2.218,-1.482 -0.823,-0.352 -1.696,-0.525 -2.6,-0.525 -0.889,0 -1.751,0.174 -2.589,0.525 -0.824,0.342 -1.559,0.834 -2.219,1.482 -0.619,0.641 -1.11,1.355 -1.469,2.178 -0.316,0.818 -0.496,1.691 -0.496,2.609 0,1.906 0.66,3.498 1.96,4.787 1.324,1.32 2.962,1.959 4.906,1.959 0.535,0 1.017,-0.049 1.498,-0.162 0.471,-0.109 0.957,-0.289 1.424,-0.531 l -3.329,-3.492 h 3.661 z m -54.622,6.492 v -18.121 h 3.013 v 6.684 h 9.133 v -6.684 h 3.011 v 18.123 h -3.011 V 497.3 h -9.133 v 8.811 h -3.013 z m -17.67,-9.276 h 7.362 c 0,0.113 0,0.293 0.015,0.512 0.029,0.584 0.034,0.98 0.034,1.186 0,2.549 -0.764,4.523 -2.242,5.947 -1.498,1.404 -3.61,2.107 -6.339,2.107 -1.514,0 -2.873,-0.217 -4.073,-0.645 -1.181,-0.441 -2.228,-1.098 -3.125,-1.98 -0.878,-0.883 -1.566,-1.916 -2.02,-3.096 -0.476,-1.176 -0.709,-2.441 -0.709,-3.781 0,-1.369 0.238,-2.633 0.725,-3.789 0.477,-1.156 1.17,-2.178 2.118,-3.051 0.923,-0.879 1.975,-1.533 3.186,-1.984 1.221,-0.451 2.529,-0.68 3.898,-0.68 1.482,0 2.772,0.258 3.935,0.779 1.149,0.516 2.178,1.318 3.085,2.387 l -2.212,1.621 c -0.62,-0.709 -1.324,-1.234 -2.108,-1.578 -0.789,-0.352 -1.677,-0.525 -2.639,-0.525 -2.006,0 -3.643,0.625 -4.933,1.893 -1.284,1.266 -1.898,2.895 -1.898,4.91 0,2.045 0.614,3.717 1.898,4.977 1.29,1.275 2.927,1.924 4.961,1.924 1.706,0 3.086,-0.4 4.063,-1.186 0.986,-0.777 1.474,-1.852 1.474,-3.193 v -0.27 h -4.465 v -2.48 z m -24.704,-8.845 h 3.013 v 18.123 h -3.013 z m -26.549,18.121 v -18.121 h 3.006 v 6.684 h 9.144 v -6.684 h 3.011 v 18.123 h -3.011 V 497.3 h -9.144 v 8.811 h -3.006 z"
            id="path10" />
        <rect x="96.251999" y="478.92499" width="410.23099" height="2.0139999" id="rect10" />
        <rect x="96.251999" y="514.13" width="410.23099" height="2.0250001" id="rect11" />
</g>
    <path fill="#ffffff"
        d="m 418.961,346.143 v 13.156 c 0,0 3.378,0.104 3.397,-2.589 0.005,-2.699 0,-8.339 0,-8.339 0,0 0.06,-2.104 -3.397,-2.232"
        id="path11" />
</svg>
