<svg xmlns="http://www.w3.org/2000/svg" viewBox="0 0 1200 1200">
  <path d="M429.05,805.47l15.86-382.85c5.78,5.87,12.43,10.89,19.73,14.85l-6.23,373.18h7.18l19.89-365.28c6.1,1.41,12.46,2.17,18.99,2.17,27.39,0,51.72-13.18,66.97-33.53l6.43,54.1c-6.39,11.08-11.5,23.28-15.75,35.51-33.16,95.24-54.07,176.15-63.22,276.8-.97,10.61.38,20.79,3.56,30.22h19.54c-3.94-8.71-5.82-18.39-4.88-28.56,9.22-101.35,27.6-172.83,62.27-272.44,12.32-35.38,30.65-68.11,68.12-68.11h251.91c37.47,0,68.12,30.66,68.12,68.11v181.26h19.77c19.92,0,36.23,16.29,36.23,36.22v86.85c0,19.92-16.3,36.23-36.23,36.23h-493.42c-29.3,0-56.52-18.86-65.35-44.94l.51.21h0ZM697.58,862.61h153.79v26.38h-153.79v-26.38h0ZM71.19,492.88h6.82V171.64h.32l35.4-104.62h29.38l27.39,94.41-22.99,344.94,13.36,17.66h161l32.84-31.14h22.86l-83.04,120.3h-140.3l-83.05-120.3h0ZM94.49,492.88h17.53l-17.53-165.07v165.07h0ZM504.48,298.53c-36.1,0-65.35,29.26-65.35,65.35s29.25,65.35,65.35,65.35,65.35-29.26,65.35-65.35-29.27-65.35-65.35-65.35h0ZM464.77,290.23c9.12-4.93,19.26-8.21,30.03-9.45L162.24,81.84l7.31,25.17,295.22,183.23h0ZM420.82,363.99v-.1c0-30.68,16.52-57.52,41.17-72.07L177.32,133.8l7.56,26.07-1.27,19.02,237.21,185.1h0ZM432.8,907.66h26.38v188.13h-143.92c66.02-44.55,96.16-89.77,117.55-188.13h0ZM665.99,473.08c-30.16,0-44.92,26.35-54.82,54.82-27.9,80.19-30.27,108.68-37.67,190.26-2.73,30.02,24.69,54.83,54.82,54.83h159.05c100.66-1.1,138.44-91.86,136.23-127.73v-117.35c0-30.13-24.68-54.82-54.82-54.82h-202.79ZM773.83,946.65c28.32,0,51.26,22.94,51.26,51.26s-22.94,51.26-51.26,51.26-51.26-22.95-51.26-51.26,22.94-51.26,51.26-51.26h0ZM973.97,946.65c28.3,0,51.26,22.94,51.26,51.26s-22.96,51.26-51.26,51.26-51.26-22.95-51.26-51.26,22.94-51.26,51.26-51.26h0ZM574.98,946.65c28.3,0,51.26,22.94,51.26,51.26s-22.96,51.26-51.26,51.26-51.27-22.95-51.27-51.26,22.96-51.26,51.27-51.26h0ZM564.38,900.02c-53.85,0-97.89,44.04-97.89,97.88h0c0,53.83,44.04,97.88,97.89,97.88h420.19c53.83,0,97.88-44.04,97.88-97.88h0c0-53.84-44.04-97.88-97.88-97.88h-420.19ZM574.45,925.58c-43.49,0-79.06,32.54-79.06,72.33h0c0,39.78,35.58,72.33,79.06,72.33h400.04c43.49,0,79.05-32.55,79.05-72.33h0c0-39.79-35.56-72.33-79.05-72.33h-400.04Z"/>
</svg>