<svg fill="#FFFFFF" xmlns="http://www.w3.org/2000/svg" version="1.1" viewBox="0 0 1200 1200">
    <path d="M184.84,941.63c-14.14,0-25.62-11.48-25.62-25.62v-128.12c0-14.14,11.48-25.6,25.62-25.6s25.62,11.46,25.62,25.6v128.12c0,14.15-11.46,25.62-25.62,25.62Z" />
    <path d="M287.34,941.63c-14.17,0-25.62-11.48-25.62-25.62v-76.87c0-14.14,11.46-25.62,25.62-25.62s25.62,11.48,25.62,25.62v76.87c0,14.15-11.48,25.62-25.62,25.62Z" />
    <path d="M389.82,941.63c-14.15,0-25.61-11.48-25.61-25.62v-128.12c0-14.14,11.46-25.6,25.61-25.6s25.62,11.46,25.62,25.6v128.12c0,14.15-11.49,25.62-25.62,25.62Z" />
    <path d="M492.28,941.63c-14.12,0-25.59-11.48-25.59-25.62v-76.87c0-14.14,11.47-25.62,25.59-25.62s25.62,11.48,25.62,25.62v76.87c0,14.15-11.46,25.62-25.62,25.62Z" />
    <path d="M594.78,941.63c-14.14,0-25.62-11.48-25.62-25.62v-128.12c0-14.14,11.48-25.6,25.62-25.6s25.62,11.46,25.62,25.6v128.12c0,14.15-11.46,25.62-25.62,25.62Z" />
    <path d="M697.27,941.63c-14.15,0-25.62-11.48-25.62-25.62v-76.87c0-14.14,11.47-25.62,25.62-25.62s25.62,11.48,25.62,25.62v76.87c0,14.15-11.47,25.62-25.62,25.62Z" />
    <path d="M799.75,941.63c-14.15,0-25.62-11.48-25.62-25.62v-128.12c0-14.14,11.47-25.6,25.62-25.6s25.61,11.46,25.61,25.6v128.12c0,14.15-11.47,25.62-25.61,25.62Z" />
    <path d="M902.25,941.63c-14.17,0-25.62-11.48-25.62-25.62v-76.87c0-14.14,11.46-25.62,25.62-25.62s25.61,11.48,25.61,25.62v76.87c0,14.15-11.47,25.62-25.61,25.62Z" />
    <path d="M1004.73,941.63c-14.15,0-25.62-11.48-25.62-25.62v-128.12c0-14.14,11.47-25.6,25.62-25.6s25.61,11.46,25.61,25.6v128.12c0,14.15-11.47,25.62-25.61,25.62Z" />
    <path d="M1004.73,685.41H184.84c-14.14,0-25.62-11.48-25.62-25.62,0-240.17,195.42-435.54,435.56-435.54s435.56,195.37,435.56,435.54c0,14.15-11.47,25.62-25.61,25.62ZM211.31,634.16h766.94c-13.24-200.01-180.16-358.69-383.47-358.69s-370.23,158.68-383.47,358.69Z" />
    <path d="M799.75,685.41h-409.93c-14.15,0-25.61-11.48-25.61-25.62,0-127.14,103.44-230.59,230.57-230.59s230.58,103.45,230.58,230.59c0,14.15-11.47,25.62-25.61,25.62ZM417.25,634.16h355.05c-12.45-86.79-87.33-153.72-177.52-153.72s-165.04,66.93-177.52,153.72Z" />
    <path d="M1107.21,941.63H82.35c-14.12,0-25.61-11.48-25.61-25.62v-256.21c0-14.14,11.49-25.62,25.61-25.62h1024.86c14.15,0,25.62,11.48,25.62,25.62v256.21c0,14.15-11.47,25.62-25.62,25.62ZM107.97,890.38h973.61v-204.97H107.97v204.97Z" />
</svg>