<svg xmlns="http://www.w3.org/2000/svg" version="1.1" viewBox="0 0 1200 1200">
  <path d="M1059,447.17h-20.15v-57.84c0-5.59-4.49-10.09-10.03-10.09h-64.68V112.68c.02-5.57-4.47-10.05-10.07-10.05H246.01c-5.59,0-10.07,4.49-10.07,10.05v266.56h-64.72c-5.55,0-10.05,4.51-10.05,10.09v57.84h-20.13c-11.13,0-20.13,9.03-20.13,20.13v105.63c0,11.09,8.99,20.13,20.13,20.13h60.38c11.09,0,20.13-9.03,20.13-20.13v-105.63c0-11.09-9.03-20.13-20.13-20.13h-20.13v-47.79h54.6v380.73c-11.69,4.13-20.13,15.2-20.13,28.31v117.37c0,9.99,4.9,18.78,12.42,24.24-7.5,5.53-12.42,14.29-12.42,24.32v47.17c0,16.72,13.52,30.18,30.18,30.18h53.94v48.48c0,11.13,12.07,20.17,27.04,20.17h90.12c14.95,0,27.04-9.03,27.04-20.17v-48.48h311.88v48.48c0,11.13,12.07,20.17,27.04,20.17h90.12c14.93,0,27.04-9.03,27.04-20.17v-48.48h53.9c16.68,0,30.14-13.52,30.14-30.18v-47.17c0-10.01-4.88-18.8-12.4-24.32,7.5-5.46,12.4-14.25,12.4-24.24v-117.37c0-13.11-8.41-24.18-20.1-28.31v-380.73h54.6v47.79h-20.13c-11.13,0-20.15,9.03-20.15,20.13v105.63c0,11.09,9.01,20.13,20.15,20.13h60.34c11.17,0,20.17-9.03,20.17-20.13v-105.63c0-11.11-8.97-20.13-20.08-20.13ZM256,399.38h22.08v378.88h-22.08v-378.88ZM291.1,1026.4c-15.29,0-27.67-12.38-27.67-27.69s12.38-27.69,27.67-27.69,27.67,12.44,27.67,27.69c-.02,15.33-12.36,27.69-27.67,27.69ZM364.86,1026.4c-15.27,0-27.67-12.38-27.67-27.69s12.4-27.69,27.67-27.69,27.69,12.44,27.69,27.69c.02,15.33-12.42,27.69-27.69,27.69ZM397.11,912.44h-134.13v-82.17h134.13v82.17ZM358.58,573.47v-204.29h211.25v204.29h-211.25ZM759.29,953.48h-318.57v-36.55h318.57v36.55h0ZM759.29,895.8h-318.57v-45.78h318.57v45.78h0ZM759.29,828.9h-318.57v-45.73h318.57v45.73h0ZM759.29,762.02h-318.57v-45.78h318.57v45.78h0ZM630.17,573.47v-204.29h211.27v204.29h-211.27ZM835.17,1026.44c-15.25,0-27.67-12.44-27.67-27.75s12.42-27.69,27.67-27.69,27.71,12.44,27.71,27.69c-.04,15.35-12.44,27.75-27.71,27.75ZM908.9,1026.44c-15.29,0-27.64-12.44-27.64-27.75s12.36-27.69,27.64-27.69,27.67,12.44,27.67,27.69-12.36,27.75-27.67,27.75ZM937.04,912.44h-134.17v-82.17h134.17v82.17ZM944,778.26h-22.08v-378.88h22.08v378.88h0ZM944,379.24h-22.08v-50.33c0-22.2-18.01-40.25-40.25-40.25H318.35c-22.24,0-40.25,18.01-40.25,40.25v50.33h-22.08v-150.85h687.98v150.85Z"/>
</svg>