<svg xmlns="http://www.w3.org/2000/svg" viewBox="0 0 1200 1200">
  <path class="cls-1" d="M1069.79,473.11c-.72-.83-1.34-1.64-2.19-2.45l-37.58-36.27c31.17-7.07,64.73-33.18,64.73-59.98,0-31.21-43.3-42.29-80.29-42.29s-43.12,26.49-43.6,45.2l-96.97-93.49c-19.7-19.5-57.04-34.85-84.97-34.85h-377.82c-27.91,0-65.25,15.34-84.97,34.85l-96.95,93.49c-.5-18.71-4.99-45.2-43.6-45.2s-80.31,11.08-80.31,42.29c0,26.79,33.58,52.91,64.75,59.98l-37.58,36.27c-.85.81-1.45,1.62-2.19,2.45-40.21,34.39-66.48,98.11-66.48,144.38v137.44c0,33.38,13.16,63.65,34.41,86.22v53.28c0,31.17,26.09,56.58,58.18,56.58h70.35c32.09,0,58.16-25.37,58.16-56.58v-13.64h630.29v13.64c0,31.21,26.07,56.58,58.18,56.58h70.33c32.11,0,58.18-25.41,58.18-56.58v-53.28c21.25-22.57,34.41-52.84,34.41-86.22v-137.44c.02-46.27-26.24-109.99-66.45-144.38ZM361.73,325.38c13.64-11.36,37.47-19.98,49.36-19.98h377.84c11.89,0,35.72,8.62,49.36,19.98l127.15,123.23H234.6l127.13-123.23ZM107.38,596.67c0-33.84,26.49-61.31,59.19-61.31s139.48,62.69,139.48,96.53-106.8,26.03-139.48,26.03-59.19-27.38-59.19-61.25ZM284.88,820.51h-22.55l-66.87.11c-18.56-5.76-31.65-12.52-40.91-19.77-4.68-3.66-8.27-7.46-11.08-11.25-2.82-3.81-4.88-7.57-6.22-11.34-8.32-23.51,8.86-45.11,8.86-45.11h114.13l76.09,87.34h-51.46v.02ZM764.11,820.55h-328.2c-34.21,0-61.99-27.76-61.99-61.97h452.18c0,34.23-27.78,61.97-61.99,61.97ZM778.51,716.32h-357.01c-37.21,0-67.42-45.88-67.42-102.46h491.84c0,56.6-30.21,102.46-67.42,102.46ZM1062.78,778.28c-1.36,3.77-3.41,7.53-6.24,11.34-2.78,3.79-6.37,7.6-11.08,11.25-9.24,7.25-22.35,14.03-40.91,19.77l-66.87-.11h-74.03l76.11-87.34h114.11s17.2,21.56,8.91,45.09ZM1033.45,657.92c-32.66,0-139.45,7.79-139.45-26.03s106.8-96.53,139.45-96.53,59.19,27.47,59.19,61.31-26.49,61.25-59.19,61.25Z"/>
</svg>